<?xml version="1.0" encoding="UTF-8" standalone="no"?>
<svg
   xmlns:dc="http://purl.org/dc/elements/1.1/"
   xmlns:cc="http://creativecommons.org/ns#"
   xmlns:rdf="http://www.w3.org/1999/02/22-rdf-syntax-ns#"
   xmlns:svg="http://www.w3.org/2000/svg"
   xmlns="http://www.w3.org/2000/svg"
   xmlns:sodipodi="http://sodipodi.sourceforge.net/DTD/sodipodi-0.dtd"
   xmlns:inkscape="http://www.inkscape.org/namespaces/inkscape"
   width="64"
   height="64"
   version="1"
   id="svg54"
   sodipodi:docname="mx-select-sound-asq2.svg"
   inkscape:version="0.92.4 (5da689c313, 2019-01-14)">
  <metadata
     id="metadata60">
    <rdf:RDF>
      <cc:Work
         rdf:about="">
        <dc:format>image/svg+xml</dc:format>
        <dc:type
           rdf:resource="http://purl.org/dc/dcmitype/StillImage" />
        <dc:title></dc:title>
      </cc:Work>
    </rdf:RDF>
  </metadata>
  <defs
     id="defs58" />
  <sodipodi:namedview
     pagecolor="#ffffff"
     bordercolor="#666666"
     borderopacity="1"
     objecttolerance="10"
     gridtolerance="10"
     guidetolerance="10"
     inkscape:pageopacity="0"
     inkscape:pageshadow="2"
     inkscape:window-width="1876"
     inkscape:window-height="1054"
     id="namedview56"
     showgrid="false"
     inkscape:zoom="3.6875"
     inkscape:cx="32"
     inkscape:cy="32"
     inkscape:window-x="44"
     inkscape:window-y="0"
     inkscape:window-maximized="1"
     inkscape:current-layer="svg54" />
  <path
     style="opacity:0.2"
     d="M 14.667,15.001 C 13.189,15.001 12,16.236 12,17.77 V 48.23 C 12,49.764 13.189,51 14.667,51 H 20 V 45 H 32 V 51 H 57.334 C 58.81,51 60,49.764 60,48.23 V 17.77 C 60,16.235 58.81,15 57.334,15 Z"
     id="path2" />
  <path
     style="fill:#419d45"
     d="M 14.667,14.001 C 13.189,14.001 12,15.236 12,16.77 V 47.23 C 12,48.764 13.189,50 14.667,50 H 20 V 44 H 32 V 50 H 57.334 C 58.81,50 60,48.764 60,47.23 V 16.77 C 60,15.235 58.81,14 57.334,14 Z"
     id="path4" />
  <rect
     style="fill:#4e4e4e"
     width="12"
     height="12"
     x="30"
     y="24"
     rx="2.4"
     ry="2.4"
     id="rect6" />
  <path
     style="fill:none;stroke:#000000;stroke-width:4;stroke-linecap:round;stroke-linejoin:round;opacity:0.2"
     d="M 6.0233,11.024 H 10.005 V 53.005"
     id="path8" />
  <path
     style="fill:none;stroke:#b7b7b7;stroke-width:4;stroke-linecap:round;stroke-linejoin:round"
     d="M 6.0233,10.024 H 10.005 V 52.005"
     id="path10" />
  <g
     style="opacity:0.2"
     transform="translate(0,1)"
     id="g20">
    <rect
       width="4"
       height="8"
       x="34"
       y="44"
       id="rect12" />
    <rect
       width="4"
       height="8"
       x="40"
       y="44"
       id="rect14" />
    <rect
       width="4"
       height="8"
       x="46"
       y="44"
       id="rect16" />
    <rect
       width="4"
       height="8"
       x="52"
       y="44"
       id="rect18" />
  </g>
  <g
     id="g30">
    <rect
       style="fill:#f8c44e"
       width="4"
       height="8"
       x="34"
       y="44"
       id="rect22" />
    <rect
       style="fill:#f8c44e"
       width="4"
       height="8"
       x="40"
       y="44"
       id="rect24" />
    <rect
       style="fill:#f8c44e"
       width="4"
       height="8"
       x="46"
       y="44"
       id="rect26" />
    <rect
       style="fill:#f8c44e"
       width="4"
       height="8"
       x="52"
       y="44"
       id="rect28" />
  </g>
  <g
     id="g48">
    <rect
       style="fill:#b7b7b7"
       width="2"
       height="4"
       x="32"
       y="21"
       id="rect32" />
    <rect
       style="fill:#b7b7b7"
       width="2"
       height="4"
       x="38"
       y="21"
       id="rect34" />
    <rect
       style="fill:#b7b7b7"
       width="2"
       height="4"
       x="32"
       y="35"
       id="rect36" />
    <rect
       style="fill:#b7b7b7"
       width="2"
       height="4"
       x="38"
       y="35"
       id="rect38" />
    <rect
       style="fill:#b7b7b7"
       width="2"
       height="4"
       x="26"
       y="-45"
       transform="rotate(90)"
       id="rect40" />
    <rect
       style="fill:#b7b7b7"
       width="2"
       height="4"
       x="32"
       y="-45"
       transform="rotate(90)"
       id="rect42" />
    <rect
       style="fill:#b7b7b7"
       width="2"
       height="4"
       x="26"
       y="-31"
       transform="rotate(90)"
       id="rect44" />
    <rect
       style="fill:#b7b7b7"
       width="2"
       height="4"
       x="32"
       y="-31"
       transform="rotate(90)"
       id="rect46" />
  </g>
  <path
     style="opacity:0.2;fill:#ffffff"
     d="M 6.0234 8.0234 A 2.0002 2.0002 0 0 0 4.0449 10.51 A 2.0002 2.0002 0 0 1 6.0234 9.0234 L 10.006 9.0234 A 2.0002 2.0002 0 0 1 12.006 11.023 L 12.006 10.023 A 2.0002 2.0002 0 0 0 10.006 8.0234 L 6.0234 8.0234 z"
     id="path50" />
  <path
     style="fill:#ffffff;opacity:0.2"
     d="M 57.334 14 L 14.668 14.002 C 13.19 14.002 12 15.236 12 16.77 L 12 17.77 C 12 16.236 13.19 15.002 14.668 15.002 L 57.334 15 C 58.81 15 60 16.235 60 17.77 L 60 16.77 C 60 15.235 58.81 14 57.334 14 z"
     id="path52" />
  <g
     id="g1231"
     transform="matrix(0.8215879,0,0,0.91644592,29.497769,-3.8556602)">
    <path
       id="path1196"
       style="opacity:0.2"
       d="m 39.953125,6.0527344 c -0.293001,-0.00432 -0.62883,0.025377 -1.011719,0.09375 L 17.138672,10.439453 C 13.909968,10.76111 14,13 14,14 v 20.76 c 3.530082,0.911462 5.997387,-2.405852 6,1.24 V 15.929688 L 36,12.671875 V 29.76 c 3.530082,0.911462 5.997387,-2.405852 6,1.24 V 8.5996094 c 2.54e-4,-0.875 0.0041,-2.5166422 -2.046875,-2.546875 z"
       inkscape:connector-curvature="0" />
    <path
       id="path1198"
       d="m 39.953125,5.0527344 c -0.293001,-0.00432 -0.62883,0.025377 -1.011719,0.09375 L 17.138672,9.4394531 C 13.909968,9.7611104 14,12 14,13 v 20.76 c 3.530082,0.911462 5.997387,-2.405852 6,1.24 V 14.929688 L 36,11.671875 V 28.76 c 3.530082,0.911462 5.997387,-2.405852 6,1.24 V 7.5996094 c 2.54e-4,-0.875 0.0041,-2.5166422 -2.046875,-2.546875 z"
       style="fill:#ed7408"
       inkscape:connector-curvature="0" />
    <circle
       id="circle1200"
       style="opacity:0.2"
       r="8"
       cy="36"
       cx="12" />
    <circle
       id="circle1202"
       r="8"
       cy="35"
       cx="12"
       style="fill:#ffac29" />
    <circle
       id="circle1204"
       r="8"
       cy="31"
       cx="34"
       style="opacity:0.2" />
    <circle
       id="circle1206"
       style="fill:#ffac29"
       r="8"
       cy="30"
       cx="34" />
    <path
       id="path1208"
       d="m 39.953125,5.0527344 c -0.293001,-0.00432 -0.62883,0.025377 -1.011719,0.09375 L 17.138672,9.4394531 C 13.909968,9.7611104 14,12 14,13 v 1 c 0,-1 -0.09003,-3.23889 3.138672,-3.560547 L 38.941406,6.1464844 c 0.382889,-0.068373 0.718718,-0.09807 1.011719,-0.09375 C 42.0041,6.0829672 42.000254,7.7246094 42,8.5996094 v -1 c 2.54e-4,-0.875 0.0041,-2.5166422 -2.046875,-2.546875 z"
       style="opacity:0.1;fill:#ffffff"
       inkscape:connector-curvature="0" />
    <path
       id="path1210"
       d="M 12,27 A 8,8 0 0 0 4,35 8,8 0 0 0 4.0214844,35.576172 8,8 0 0 1 12,28 8,8 0 0 1 19.978516,35.423828 8,8 0 0 0 20,35 8,8 0 0 0 12,27 Z"
       style="opacity:0.2;fill:#ffffff"
       inkscape:connector-curvature="0" />
    <path
       id="path1212"
       d="m 34,22 a 8,8 0 0 0 -8,8 8,8 0 0 0 0.02148,0.576172 A 8,8 0 0 1 34,23 8,8 0 0 1 41.978516,30.423828 8,8 0 0 0 42,30 8,8 0 0 0 34,22 Z"
       style="opacity:0.2;fill:#ffffff"
       inkscape:connector-curvature="0" />
  </g>
</svg>
